<svg xmlns="http://www.w3.org/2000/svg" viewBox="0 0 64 64" width="64" height="64">
  <rect width="64" height="64" rx="9" fill="#f4f5fa"/>
  <svg x="12" y="17" width="40" height="30" viewBox="238 170 560 430" preserveAspectRatio="xMidYMid meet">

    <g transform="matrix(1,0,0,1,0.109955,0)">
        <g transform="matrix(1,0,0,1,-0.109955,37.588906)">
            <g transform="matrix(1,0,0,1,7,-98.550108)">
                <rect x="273.889" y="300.922" width="58.111" height="288.078" style="fill:#080a12;stroke:none;"/>
            </g>
            <g transform="matrix(1,0,0,1,7,-98.550108)">
                <path d="M361,300.922L361,589L389,589L390,300.922L361,300.922Z" style="fill:#080a12;stroke:none;"/>
            </g>
            <g transform="matrix(1,0,0,1,7,-98.550108)">
                <rect x="419" y="300.922" width="29" height="288.078" style="fill:#080a12;stroke:none;"/>
            </g>
            <g transform="matrix(1,0,0,1,7,-98.550108)">
                <path d="M477,300.922L477,589L490,589L491,300.922L477,300.922Z" style="fill:#080a12;stroke:none;"/>
            </g>
            <g transform="matrix(1,0,0,1,7,-98.550108)">
                <rect x="505" y="300.922" width="29" height="288.078" style="fill:#080a12;stroke:none;"/>
            </g>
            <g transform="matrix(1,0,0,1,7,-98.550108)">
                <rect x="563" y="300.922" width="14" height="288.078" style="fill:#080a12;stroke:none;"/>
            </g>
            <g transform="matrix(1,0,0,1,7,-98.550108)">
                <path d="M621,300.922L620,589L649,589L650,300.922L621,300.922Z" style="fill:#080a12;stroke:none;"/>
            </g>
            <g transform="matrix(1,0,0,1,7,-98.550108)">
                <path d="M664,300.922L665,589L679,589L679,300.922L664,300.922Z" style="fill:#080a12;stroke:none;"/>
            </g>
            <g transform="matrix(1,0,0,1,7,-98.550108)">
                <path d="M708,300.922L707,589L736.111,589L736.111,300.922L708,300.922Z" style="fill:#080a12;stroke:none;"/>
            </g>
        </g>
    </g>

  </svg>
</svg>